<svg width="374.98" height="100" version="1.1" viewBox="0 0 374.98 100" xmlns="http://www.w3.org/2000/svg">
 <path d="m21.199 0c-11.71 0-21.199 9.489-21.199 21.199v57.602c0 11.71 9.489 21.199 21.199 21.199h57.602c11.71 0 21.199-9.489 21.199-21.199v-57.602c0-11.71-9.489-21.199-21.199-21.199zm0 4h57.602c9.5634 0 17.199 7.6358 17.199 17.199v57.602c0 9.5634-7.6358 17.199-17.199 17.199h-57.602c-9.5634 0-17.199-7.6358-17.199-17.199v-57.602c0-9.5634 7.6358-17.199 17.199-17.199z" color="#000000" style="-inkscape-stroke:none"/>
 <path d="m30 23.6 20 26.4 20-26.4zm20 26.4 20 26.4 20-26.4zm0 0h-40l20 26.4z" fill="none" stroke="#000" stroke-width="4"/>
 <text x="122.7115" y="74.874001" fill="#2d2d2d" font-family="sans-serif" font-size="67.5px" letter-spacing="0px" stroke-width="1px" word-spacing="0px" style="line-height:125%" xml:space="preserve"><tspan x="122.7115" y="74.874001" fill="#2d2d2d" font-family="sans-serif" font-size="67.5px">nuclear</tspan></text>
</svg>
